<?xml version="1.0" encoding="utf-8"?>
<!-- Generator: Adobe Illustrator 20.1.0, SVG Export Plug-In . SVG Version: 6.00 Build 0)  -->
<svg version="1.1" id="Capa_1" xmlns="http://www.w3.org/2000/svg" xmlns:xlink="http://www.w3.org/1999/xlink" x="0px" y="0px"
	 width="671.2px" height="151.8px" viewBox="0 0 671.2 151.8" style="enable-background:new 0 0 671.2 151.8;" xml:space="preserve"
	>
<style type="text/css">
	.st0{fill:#FFFFFF;}
</style>
<path class="st0" d="M169.1,74.9c5.4-4.4,5.4-4.4,5.4-11.2c0-12.6,0-25.3,0-37.8c0-4.8-2.1-7-6.9-7c-9.4,0-18.7,0-28.1,0
	c-3,0-4.1,1-4.1,4c0,35.3,0,70.6,0,105.9c0,3.3,1.3,4.3,4.4,4.3c8.9-0.1,18,0,26.9,0c6,0,7.9-1.9,7.9-8c0-13.1,0-26,0-39.1
	C174.6,81.3,175.4,76.5,169.1,74.9z M159.4,121.2c-2.9-0.1-5.7-0.3-8.5,0c-3,0.3-3.6-1.1-3.6-3.9c0.1-10.7,0.1-21.5,0-32.2
	c0-2.8,0.9-3.9,3.8-3.8c3.8,0.3,7.5,0,11.4,0c0.3,1.4,0.5,2.3,0.5,3.1c0,10.9,0,22,0.1,32.9C163,120.4,162.1,121.5,159.4,121.2z
	 M159.2,70.1c-3-0.1-5.9-0.1-8.9,0c-2,0.1-2.9-0.8-2.9-2.9c0-11.2,0-22.5,0-33.7c0-2.1,0.8-2.9,2.9-2.9c3.1,0.1,6.3,0.1,9.3,0
	c2.5-0.1,3.4,0.9,3.3,3.3c-0.1,5.4,0,10.8,0,16.2h0.1c0,5.4-0.1,10.8,0,16.2C163.1,69.4,162,70.2,159.2,70.1z"/>
<path class="st0" d="M279.3,82c-0.3-1.3,0.8-2.6,1.4-3.9c1-2.3,3-4.4,3-6.5c0.3-15.1,0.1-30.2,0.1-45.2c0-5.3-2-7.4-7.4-7.4
	c-8.7,0-17.3,0-26.1,0c-5.7,0-5.7,0-5.7,5.8c0,33.8,0,67.6,0,101.4c0,6.9,0,6.7,7,6.9c3.9,0.1,4.9-1.4,4.9-5c-0.1-9.2,0-18.5,0-27.8
	c0-6.9,0-13.8,0-21.4c2.4,0,4.1,0.1,5.9,0c3.3-0.4,4.6,0.6,5.3,4.1c2.6,14.7,5.8,29.3,8.5,44c1.1,5.9,1.1,5.9,7.3,5.9
	c5.3,0,5.5-0.4,4.4-5.7C285.1,112.1,282.2,97.1,279.3,82z M272,66.8c-5.4,0-10.1,0-15.1,0c-0.1-1.1-0.4-2.1-0.4-3.3
	c0-9.8,0.1-19.5-0.1-29.3c0-2.8,0.9-3.9,3.6-3.8c3,0.3,6-0.1,8.9,0.1c1,0.1,2.8,1.5,2.8,2.4C272.1,44.2,272,55.3,272,66.8z"/>
<path class="st0" d="M336.2,83.5c-0.5-2.4-1-4.4,1.8-6.3c1.5-1,2.5-3.9,2.5-6c0.3-15,0.1-29.9,0.1-44.9c0-5.5-2.1-7.7-7.7-7.7
	c-8.8,0-17.7,0.1-26.5-0.1c-4.1-0.1-5,1.4-5,5.2c0.1,25.6,0.1,51.4,0.1,77c0,9.3-0.1,18.5,0.1,27.6c0,1.4,0.8,3.5,1.8,3.9
	c5.9,2.5,9.8-0.3,9.8-6.5c0-15.5,0-30.9,0-47c1.9-0.1,3.1-0.3,4.5-0.3c6.5,0.1,5.8-1.1,7,5.8c2.8,13.9,5.5,27.9,8.3,42
	c1.3,6.3,1.3,6.3,7.8,6.2c4.5,0,4.9-0.5,4.1-5C342.1,113.1,339.2,98.4,336.2,83.5z M328.6,67c-4.5,0-9,0.1-13.4-0.1
	c-0.8,0-1.9-1.8-1.9-2.8c-0.1-10.2-0.1-20.4,0-30.5c0-1,1.5-2.6,2.3-2.8c4.1-0.3,8.3-0.1,12.9-0.1C328.6,43.1,328.6,54.8,328.6,67z"
	/>
<path class="st0" d="M668.4,52.4c-5-1.6-10.1-2.8-16-4.1c0,2.3,0,3.8,0,5.2c0,11.1,0,22,0,33c0,6-3.1,9.9-8.3,11.1
	c-8.3,1.8-14.1-3-14.2-12.1c-0.1-10.6,0-21.2,0-31.8c0-1.5,0-2.9,0-5.2c-5.4,1.3-10.1,2.4-14.7,3.5c-2.6,0.6-3.6,2.1-3.6,4.9
	c0.1,10.6,0,21.2,0.1,31.8c0.1,11.6,7,20.5,18.2,23.6c6.7,1.9,13.3,2,20.1,0.6c13.8-3,20.7-13.6,20.7-23.4
	c0.1-11.2,0.4-22.2,0.4-33.4C671.2,54.9,669.7,52.8,668.4,52.4z"/>
<path class="st0" d="M193.9,113.3c6,1.1,8.4,0,9.4-4.1c0.3-1.1,1.5-2.9,2.4-2.9c3.9-0.4,7.8-0.1,11.9-0.1c0.4,1.8,0.4,3.4,1,4.6
	c0.6,1.1,1.9,2.5,2.9,2.5c8.4,0.1,9.7,1.3,7.8-7.7c-0.1-0.4-0.1-0.8-0.1-1.3c-4.1-27.4-8.2-54.7-12.4-82c-0.1-1.3-1.3-2.9-2.4-3.3
	c-6.2-1.9-9.2,0-10.2,6.4c-0.3,1.5-0.4,3-0.6,4.4c-3.9,25.9-7.9,51.8-11.8,77.5C191.6,109.6,190,112.6,193.9,113.3z M210,65.5
	c0.5,0,1,0,1.6,0c1.4,9.4,2.9,19,4.4,29c-3.1,0-5.7,0.1-8.2-0.1c-0.6-0.1-1.9-1.3-1.8-1.9C207.2,83.4,208.6,74.5,210,65.5z"/>
<path class="st0" d="M386,23.2c-0.8-5.4-4.1-4.1-7.3-4.4c-3.4-0.4-4.8,1-5.3,4.4c-2.8,19.2-5.8,38.3-8.7,57.5
	c-1.4,9.3-2.8,18.5-4.3,27.8c-0.5,3-0.1,4.9,3.8,4.9c6.9,0,6.9,0.1,8.5-6.4c0-0.3,0.4-0.4,0.6-0.8c4.1,0,8.5,0,12.9,0
	c0.3,0.9,0.6,1.5,0.9,2.4c1,4.9,2.5,5.8,9.3,4.8c4.6-0.8,2.5-4.3,2.1-6.4C394.4,79,389.9,51.1,386,23.2z M374.6,94.1
	c1.5-9.7,2.9-19.2,4.3-28.8c0.5,0,1,0,1.5,0c1.5,9.4,2.9,18.8,4.4,28.8C381.3,94.1,378.4,94.1,374.6,94.1z"/>
<path class="st0" d="M57.3,113.5c6.5-0.1,6.5,0,8.2-6.3c0.1-0.3,0.3-0.5,0.6-1c3.5,0,7.3-0.1,11.1,0.1c0.9,0,2.5,1.3,2.4,1.9
	c-0.1,5.8,3.8,5.4,7.7,5.4c3.6,0,4.8-1.1,4.3-4.8c-1.8-10.9-3.4-22-5-32.9c-2.6-17.8-5.4-35.7-8-53.5c-0.4-2.3-1.3-3.4-3.6-3.3
	c-1.5,0.1-3,0.1-4.5,0c-2.6-0.3-3.6,1.1-4,3.5c-4.4,28.8-8.7,57.7-13.1,86.4C52.8,112.2,53.8,113.5,57.3,113.5z M71.6,65.3
	c0.5,0,1,0,1.5,0c1.5,9.4,2.9,18.8,4.5,28.8c-3.8,0-6.8,0-10.3,0C68.9,84.3,70.2,74.9,71.6,65.3z"/>
<path class="st0" d="M32.3,121.2c-4.9,0.1-9.8,0-14.7,0c-5.8,0-5.8,0-5.8-5.7c0-30,0-60.1,0-90c0-6.8,0-6.5-6.7-6.8
	C1.1,18.7,0,20.1,0,24c0.3,17.2,0.3,34.4,0.3,51.6c0,17.6,0,35.1-0.1,52.6c0,3.5,1,4.9,4.6,4.8c8.3-0.3,16.6-0.1,24.9-0.1
	c7.4,0,7.2,0,7.3-7.3C36.9,122.1,35.6,121.1,32.3,121.2z"/>
<path class="st0" d="M446.3,0.8c-5.5,0-5.7,0.2-5.8,7c0,22.6,0,45.3,0,67.9c0,23,0,46.1,0,69.1c0,6.8,0.1,7,5.8,7
	c5.9,0,6.2-0.2,6.2-7c0-45.6,0-91.4,0-137C452.5,1.1,452.2,0.8,446.3,0.8z"/>
<path class="st0" d="M561.8,49.4c-13.3,6.9-20.1,21.5-16.8,37.6c8.5-4,16.7-7.8,21.6-16.2c4.5-7.9,12.4-10.6,20.9-7.2
	c1,0.4,2.6,1,3.4,0.5c5-2.9,9.8-6,14.7-9.2C595.6,44.3,575.8,42,561.8,49.4z"/>
<path class="st0" d="M506.6,87.9c-3.1-8.5-2.8-16.6,4.6-22.6c7.5-6.2,15.2-3.9,22.4,1.8c3.9-4.5,7.5-8.7,11.2-12.8
	c-0.4-0.6-0.4-1-0.6-1.1c-14.8-13.6-44-9.7-54.4,7.3c-0.6,1-1.1,2.3-1.1,3.4C489.1,73,497.8,84.8,506.6,87.9z"/>
<path class="st0" d="M575.7,96.9c-6.9-1.6-9.8-7-11.8-13.1c-3.5,2.1-6.5,4.3-9.8,5.9c-7.9,4.4-8.2,5.4-1.9,12.4
	c0.3,0.3,0.5,0.6,0.9,0.9c11.6,12.6,34.3,13.9,48,4.9c0.9-0.6,1.6-1.4,2.8-2.4c-3.5-4.3-6.8-8.4-10.4-12.9
	C587.8,97.4,582.1,98.4,575.7,96.9z"/>
<path class="st0" d="M532.4,97.6c-18.2,4.9-36.1-3-45-19.7c-0.6-1.1-1.3-2.3-1.9-3.4c-1.9,11.9,0.4,22.6,9.8,30.5
	c13.1,10.8,27.8,10.6,43,5.5c2-0.6,3.8-1.8,6-2.8c-2.1-3-4.3-5.4-5.8-8C536.9,97.1,535.1,97,532.4,97.6z"/>
<path class="st0" d="M87.7,121.2c-9,0.1-18.1,0-27.3,0c-7.8,0-7.7,0-7.5,7.8c0,3.1,1.4,4,4.1,3.9c5-0.1,10.1,0,15.1,0
	c5.4,0,10.8-0.1,16.2,0c2.4,0,3.5-1,3.5-3.4c0-1.4-0.1-2.8,0-4C92.2,122.4,91,121.1,87.7,121.2z"/>
<path class="st0" d="M395,121.2c-9,0.1-18.1,0-27.3,0c-7.8,0-7.7,0-7.5,7.8c0,3.1,1.3,4,4.1,3.9c5-0.1,10.1,0,15.1,0
	c5.4,0,10.8-0.1,16.2,0c2.4,0,3.5-1,3.5-3.4c0-1.4-0.1-2.8,0-4C399.4,122.4,398.2,121.1,395,121.2z"/>
<path class="st0" d="M224.9,121.2c-8.7,0-17.3,0-26,0c-7.9,0-7.8,0-7.7,7.8c0.1,3,1.3,4,4.1,3.9c5.2-0.1,10.3,0,15.5,0
	c5,0,10.1-0.1,15.1,0c3.1,0.1,4.6-0.9,4.3-4.1c-0.1-0.6,0-1.4,0-2C230.2,121.2,230.2,121.2,224.9,121.2z"/>
</svg>
