<?xml version="1.0" encoding="utf-8"?>
<!-- Generator: Adobe Illustrator 20.1.0, SVG Export Plug-In . SVG Version: 6.00 Build 0)  -->
<svg version="1.1" id="Capa_1" xmlns="http://www.w3.org/2000/svg" xmlns:xlink="http://www.w3.org/1999/xlink" x="0px" y="0px"
	 width="268px" height="60.3px" viewBox="0 0 268 60.3" style="enable-background:new 0 0 268 60.3;" xml:space="preserve">
<path d="M67.5,29.6c2.2-1.8,2.2-1.8,2.2-4.5c0-5,0-10.1,0-15.1c0-1.9-0.9-2.8-2.8-2.8c-3.8,0-7.5,0-11.2,0c-1.2,0-1.7,0.4-1.7,1.6
	c0,14.1,0,28.2,0,42.3c0,1.3,0.5,1.7,1.8,1.7c3.6-0.1,7.2,0,10.7,0c2.4,0,3.2-0.8,3.2-3.2c0-5.2,0-10.4,0-15.6
	C69.7,32.1,70,30.2,67.5,29.6z M63.7,48.1c-1.2-0.1-2.3-0.1-3.4,0c-1.2,0.1-1.5-0.5-1.5-1.6c0.1-4.3,0.1-8.6,0-12.8
	c0-1.1,0.4-1.6,1.5-1.5c1.5,0.1,3,0,4.6,0c0.1,0.6,0.2,0.9,0.2,1.3c0,4.4,0,8.8,0.1,13.1C65.1,47.7,64.7,48.2,63.7,48.1z M63.6,27.7
	c-1.2-0.1-2.4-0.1-3.6,0c-0.8,0.1-1.2-0.3-1.2-1.2c0-4.5,0-9,0-13.4c0-0.9,0.3-1.2,1.2-1.2c1.3,0.1,2.5,0.1,3.7,0
	c1-0.1,1.4,0.4,1.3,1.3c-0.1,2.2,0,4.3,0,6.5h0.1c0,2.2-0.1,4.3,0,6.5C65.1,27.4,64.7,27.7,63.6,27.7z"/>
<path d="M111.5,32.4c-0.1-0.5,0.3-1.1,0.6-1.6c0.4-0.9,1.2-1.8,1.2-2.6c0.1-6,0.1-12,0.1-18.1c0-2.1-0.8-3-3-3c-3.5,0-6.9,0-10.4,0
	c-2.3,0-2.3,0-2.3,2.3c0,13.5,0,27,0,40.5c0,2.8,0,2.7,2.8,2.8c1.6,0.1,2-0.6,2-2c-0.1-3.7,0-7.4,0-11.1c0-2.8,0-5.5,0-8.5
	c1,0,1.7,0.1,2.4,0c1.3-0.2,1.9,0.3,2.1,1.7c1.1,5.9,2.3,11.7,3.4,17.6c0.5,2.4,0.5,2.4,2.9,2.4c2.1,0,2.2-0.2,1.8-2.3
	C113.8,44.4,112.7,38.5,111.5,32.4z M108.6,26.4c-2.2,0-4,0-6,0c-0.1-0.5-0.2-0.9-0.2-1.3c0-3.9,0.1-7.8-0.1-11.7
	c0-1.1,0.4-1.6,1.5-1.5c1.2,0.1,2.4-0.1,3.6,0.1c0.4,0.1,1.1,0.6,1.1,1C108.7,17.3,108.6,21.8,108.6,26.4z"/>
<path d="M134.3,33c-0.2-1-0.4-1.8,0.7-2.5c0.6-0.4,1-1.6,1-2.4c0.1-6,0.1-11.9,0.1-17.9c0-2.2-0.9-3.1-3.1-3.1
	c-3.5,0-7.1,0.1-10.6-0.1c-1.7-0.1-2,0.6-2,2.1c0.1,10.2,0.1,20.5,0.1,30.8c0,3.7-0.1,7.4,0.1,11c0,0.6,0.3,1.4,0.7,1.6
	c2.4,1,3.9-0.1,3.9-2.6c0-6.2,0-12.3,0-18.8c0.8-0.1,1.3-0.1,1.8-0.1c2.6,0.1,2.3-0.5,2.8,2.3c1.1,5.6,2.2,11.1,3.3,16.8
	c0.5,2.5,0.5,2.5,3.1,2.5c1.8,0,2-0.2,1.7-2C136.6,44.8,135.5,39,134.3,33z M131.2,26.4c-1.8,0-3.6,0.1-5.4-0.1
	c-0.3,0-0.8-0.7-0.8-1.1c-0.1-4.1-0.1-8.1,0-12.2c0-0.4,0.6-1.1,0.9-1.1c1.7-0.1,3.3-0.1,5.2-0.1C131.2,16.9,131.2,21.6,131.2,26.4z
	"/>
<path d="M266.9,20.6c-2-0.7-4-1.1-6.4-1.7c0,0.9,0,1.5,0,2.1c0,4.4,0,8.8,0,13.2c0,2.4-1.3,4-3.3,4.4c-3.3,0.7-5.6-1.2-5.7-4.8
	c-0.1-4.2,0-8.5,0-12.7c0-0.6,0-1.2,0-2.1c-2.2,0.5-4,1-5.9,1.4c-1.1,0.3-1.5,0.9-1.5,2c0.1,4.2,0,8.5,0.1,12.7
	c0.1,4.6,2.8,8.2,7.3,9.4c2.7,0.8,5.3,0.8,8,0.3c5.5-1.2,8.3-5.4,8.3-9.3c0.1-4.5,0.2-8.9,0.2-13.3C268,21.6,267.4,20.7,266.9,20.6z
	"/>
<path d="M77.4,44.9c2.4,0.5,3.4,0,3.8-1.7c0.1-0.5,0.6-1.2,1-1.2c1.6-0.2,3.1-0.1,4.8-0.1c0.2,0.7,0.2,1.4,0.4,1.9
	c0.3,0.5,0.8,1,1.2,1c3.4,0.1,3.9,0.5,3.1-3.1c-0.1-0.2-0.1-0.3-0.1-0.5c-1.7-10.9-3.3-21.8-5-32.8c-0.1-0.5-0.5-1.2-1-1.3
	c-2.5-0.8-3.7,0-4.1,2.6c-0.1,0.6-0.2,1.2-0.3,1.8c-1.6,10.3-3.2,20.7-4.7,31C76.5,43.4,75.9,44.6,77.4,44.9z M83.8,25.8
	c0.2,0,0.4,0,0.7,0c0.6,3.8,1.2,7.6,1.8,11.6c-1.3,0-2.3,0.1-3.3-0.1c-0.3-0.1-0.8-0.5-0.7-0.8C82.7,33,83.3,29.4,83.8,25.8z"/>
<path d="M154.1,9c-0.3-2.2-1.7-1.7-2.9-1.8c-1.4-0.2-1.9,0.4-2.1,1.8c-1.1,7.7-2.3,15.3-3.5,23c-0.6,3.7-1.1,7.4-1.7,11.1
	c-0.2,1.2-0.1,2,1.5,2c2.8,0,2.8,0.1,3.4-2.6c0-0.1,0.2-0.2,0.3-0.3c1.7,0,3.4,0,5.2,0c0.1,0.4,0.3,0.6,0.4,1c0.4,2,1,2.3,3.7,1.9
	c1.9-0.3,1-1.7,0.9-2.6C157.5,31.2,155.7,20.1,154.1,9z M149.6,37.3c0.6-3.9,1.2-7.7,1.7-11.5c0.2,0,0.4,0,0.6,0
	c0.6,3.8,1.2,7.5,1.8,11.5C152.3,37.3,151.1,37.3,149.6,37.3z"/>
<path d="M22.9,45c2.6-0.1,2.6,0,3.3-2.5c0.1-0.1,0.1-0.2,0.3-0.4c1.4,0,2.9-0.1,4.4,0.1c0.4,0,1,0.5,1,0.8c-0.1,2.3,1.5,2.2,3.1,2.2
	c1.5,0,1.9-0.5,1.7-1.9c-0.7-4.4-1.4-8.8-2-13.1c-1.1-7.1-2.2-14.2-3.2-21.4c-0.2-0.9-0.5-1.4-1.5-1.3c-0.6,0.1-1.2,0.1-1.8,0
	c-1.1-0.1-1.5,0.5-1.6,1.4c-1.8,11.5-3.5,23-5.2,34.5C21.1,44.5,21.5,45,22.9,45z M28.6,25.8c0.2,0,0.4,0,0.6,0
	c0.6,3.8,1.2,7.5,1.8,11.5c-1.5,0-2.7,0-4.1,0C27.5,33.3,28,29.6,28.6,25.8z"/>
<path d="M12.9,48.1c-2,0.1-3.9,0-5.9,0c-2.3,0-2.3,0-2.3-2.3c0-12,0-24,0-35.9c0-2.7,0-2.6-2.7-2.7C0.5,7.2,0,7.7,0,9.3
	C0.1,16.1,0.1,23,0.1,29.9c0,7,0,14-0.1,21c0,1.4,0.4,2,1.9,1.9c3.3-0.1,6.6-0.1,9.9-0.1c3,0,2.9,0,2.9-2.9
	C14.7,48.4,14.2,48,12.9,48.1z"/>
<path d="M178.2,0c-2.2,0-2.3,0.1-2.3,2.8c0,9,0,18.1,0,27.1c0,9.2,0,18.4,0,27.6c0,2.7,0.1,2.8,2.3,2.8c2.4,0,2.5-0.1,2.5-2.8
	c0-18.2,0-36.5,0-54.7C180.7,0.1,180.6,0,178.2,0z"/>
<path d="M224.3,19.4c-5.3,2.8-8,8.6-6.7,15c3.4-1.6,6.7-3.1,8.6-6.5c1.8-3.2,5-4.2,8.3-2.9c0.4,0.2,1.1,0.4,1.4,0.2
	c2-1.2,3.9-2.4,5.9-3.7C237.8,17.4,229.9,16.4,224.3,19.4z"/>
<path d="M202.3,34.8c-1.3-3.4-1.1-6.6,1.9-9c3-2.5,6.1-1.6,8.9,0.7c1.6-1.8,3-3.5,4.5-5.1c-0.2-0.3-0.2-0.4-0.3-0.5
	c-5.9-5.4-17.6-3.9-21.7,2.9c-0.3,0.4-0.5,0.9-0.5,1.4C195.3,28.8,198.8,33.5,202.3,34.8z"/>
<path d="M229.9,38.4c-2.8-0.7-3.9-2.8-4.7-5.2c-1.4,0.9-2.6,1.7-3.9,2.4c-3.2,1.8-3.3,2.2-0.8,5c0.1,0.1,0.2,0.3,0.4,0.4
	c4.6,5,13.7,5.6,19.2,2c0.4-0.3,0.7-0.6,1.1-1c-1.4-1.7-2.7-3.4-4.2-5.2C234.7,38.6,232.4,39,229.9,38.4z"/>
<path d="M212.6,38.7c-7.3,2-14.4-1.2-18-7.9c-0.3-0.5-0.5-0.9-0.8-1.4c-0.8,4.8,0.2,9,3.9,12.2c5.2,4.3,11.1,4.2,17.2,2.2
	c0.8-0.3,1.5-0.7,2.4-1.1c-0.9-1.2-1.7-2.2-2.3-3.2C214.4,38.5,213.7,38.4,212.6,38.7z"/>
<path d="M35,48.1c-3.6,0.1-7.2,0-10.9,0c-3.1,0-3.1,0-3,3.1c0,1.3,0.6,1.6,1.7,1.6c2-0.1,4,0,6,0c2.2,0,4.3-0.1,6.5,0
	c1,0,1.4-0.4,1.4-1.4c0-0.6-0.1-1.1,0-1.6C36.8,48.5,36.3,48,35,48.1z"/>
<path d="M157.7,48.1c-3.6,0.1-7.2,0-10.9,0c-3.1,0-3.1,0-3,3.1c0,1.3,0.5,1.6,1.7,1.6c2-0.1,4,0,6,0c2.2,0,4.3-0.1,6.5,0
	c1,0,1.4-0.4,1.4-1.4c0-0.6-0.1-1.1,0-1.6C159.5,48.5,159,48,157.7,48.1z"/>
<path d="M89.8,48.1c-3.5,0-6.9,0-10.4,0c-3.2,0-3.1,0-3.1,3.1c0.1,1.2,0.5,1.6,1.7,1.6c2.1-0.1,4.1,0,6.2,0c2,0,4-0.1,6,0
	c1.3,0.1,1.9-0.4,1.7-1.7c-0.1-0.3,0-0.6,0-0.8C91.9,48.1,91.9,48.1,89.8,48.1z"/>
</svg>
